<?xml version="1.0" standalone="no"?>
<!DOCTYPE svg PUBLIC "-//W3C//DTD SVG 20010904//EN"
 "http://www.w3.org/TR/2001/REC-SVG-20010904/DTD/svg10.dtd">
<svg version="1.0" xmlns="http://www.w3.org/2000/svg"
 width="500.000000pt" height="500.000000pt" viewBox="0 0 500.000000 500.000000"
 preserveAspectRatio="xMidYMid meet">
<metadata>
Created by potrace 1.11, written by Peter Selinger 2001-2013
</metadata>
<g transform="translate(0.000000,500.000000) scale(0.100000,-0.100000)"
fill="#000000" stroke="none">
<path d="M1677 4815 c-15 -15 -12 -55 4 -55 5 0 9 -5 9 -10 0 -10 77 -128 91
-140 12 -11 109 -160 109 -168 0 -5 -19 -18 -42 -28 -71 -32 -227 -141 -296
-207 -175 -167 -289 -384 -318 -605 -3 -23 1 -34 12 -39 25 -9 57 -10 75 -1 9
4 19 5 22 1 8 -7 207 -10 207 -3 0 7 69 4 76 -3 3 -3 19 -1 35 3 16 5 29 6 29
2 0 -9 105 -6 119 2 6 4 11 4 11 -1 0 -4 14 -8 30 -8 17 0 30 2 30 5 0 3 23 5
50 5 28 0 50 -2 50 -5 0 -3 38 -5 85 -5 47 0 85 4 85 8 0 5 5 5 11 1 6 -3 35
-6 64 -6 29 0 58 3 64 6 6 4 11 4 11 -1 0 -4 14 -8 30 -8 17 0 30 3 30 7 0 3
8 4 18 2 28 -7 132 -10 132 -4 0 7 69 5 76 -3 3 -3 19 -1 35 3 16 5 29 6 29 2
0 -9 105 -6 119 2 6 4 11 4 11 -1 0 -4 14 -8 30 -8 17 0 30 2 30 5 0 3 23 5
50 5 28 0 50 -2 50 -5 0 -3 38 -5 85 -5 47 0 85 4 85 8 0 5 5 5 11 2 10 -7
102 -10 124 -5 6 1 12 2 15 1 12 -5 210 -5 210 -1 0 7 69 4 76 -3 3 -3 19 -1
35 3 16 5 29 6 29 2 0 -9 94 -7 108 2 11 6 10 35 -3 112 -6 38 -4 44 35 88 49
57 50 85 5 134 -16 18 -30 43 -31 55 -5 69 -48 110 -108 103 -20 -3 -41 -8
-46 -11 -5 -3 -22 9 -37 27 -106 127 -335 318 -380 318 -7 0 -13 4 -13 8 0 5
-16 14 -35 22 -19 8 -35 16 -35 19 0 7 70 113 79 121 3 3 11 13 16 22 6 10 38
58 73 109 34 50 62 97 62 105 0 13 -29 34 -48 34 -5 0 -46 -53 -91 -117 -44
-65 -84 -123 -88 -128 -6 -8 -71 -101 -78 -113 -1 -1 -22 5 -46 14 -24 8 -51
17 -59 19 -197 48 -203 49 -405 49 -211 1 -319 -14 -454 -64 -30 -10 -57 -18
-60 -15 -4 2 -24 30 -46 62 -22 32 -42 60 -45 63 -3 3 -9 12 -15 21 -56 90
-147 209 -160 209 -8 0 -20 -7 -28 -15z"/>
<path d="M745 3382 c-2 -3 -18 -6 -34 -7 -34 -3 -131 -45 -131 -57 0 -4 -7 -8
-15 -8 -8 0 -15 -3 -15 -8 0 -4 -10 -18 -23 -32 -52 -58 -51 -45 -52 -632 -1
-488 1 -548 14 -552 9 -3 140 -4 292 -4 152 1 281 -2 286 -5 6 -4 18 0 28 7
18 13 18 42 17 547 -1 537 -1 554 -15 577 -5 6 -5 12 -1 12 3 0 -4 9 -17 21
-13 11 -17 17 -9 14 8 -4 -3 10 -25 31 -44 42 -118 80 -175 90 -47 9 -119 12
-125 6z"/>
<path d="M4125 3380 c-3 -5 -12 -7 -19 -4 -20 8 -138 -49 -173 -83 -31 -30
-64 -83 -70 -113 -3 -13 -6 -887 -4 -1041 l1 -56 135 0 c75 0 138 -3 141 -6 3
-3 -8 -34 -24 -70 l-30 -64 -79 2 c-102 2 -105 0 -98 -44 7 -50 24 -89 58
-138 19 -27 26 -46 21 -55 -14 -22 -14 -40 1 -67 7 -14 15 -25 17 -23 4 4 32
-5 75 -24 17 -8 36 -14 42 -14 6 0 11 -5 11 -12 0 -6 3 -8 6 -5 4 4 23 -2 43
-12 41 -21 153 -74 161 -76 3 -1 13 -5 23 -9 30 -14 64 2 80 36 42 91 87 190
87 193 0 2 15 36 34 77 80 174 106 233 111 248 1 3 16 36 34 74 43 92 48 121
25 147 -10 11 -24 17 -31 15 -7 -3 -13 -1 -13 4 0 6 -6 10 -12 10 -7 0 -35 11
-62 25 -27 14 -56 26 -65 27 -9 2 -22 9 -29 16 -8 7 -17 10 -20 8 -4 -2 -7
188 -7 422 l0 427 -29 45 c-33 51 -51 70 -64 70 -5 0 -15 7 -22 15 -30 36
-239 81 -255 55z"/>
<path d="M1235 3370 c-2 -3 -4 -471 -3 -1040 0 -830 3 -1041 13 -1067 7 -17
11 -34 7 -37 -3 -3 0 -6 6 -6 7 0 12 -5 12 -11 0 -13 61 -65 72 -61 4 1 8 -2
8 -7 0 -18 97 -30 223 -28 l127 2 1 -30 c0 -16 1 -183 2 -370 2 -330 3 -341
24 -386 51 -102 145 -162 254 -161 110 1 195 54 251 156 22 40 22 48 23 408 1
203 5 371 8 374 8 8 446 11 448 4 1 -3 2 -167 4 -365 1 -222 6 -372 13 -392
34 -104 143 -183 250 -184 67 -1 83 3 137 27 49 24 99 75 128 134 22 44 22 53
22 415 l0 370 148 -1 c81 -1 150 3 153 8 3 4 9 6 14 3 11 -7 60 15 60 27 0 5
3 7 8 5 4 -2 17 6 30 19 12 13 19 24 15 24 -4 0 -3 4 4 8 7 4 19 24 27 44 14
32 15 164 13 1080 l-2 1043 -385 -3 c-212 -1 -450 -2 -530 -2 -80 0 -235 0
-345 0 -361 0 -475 0 -858 3 -208 1 -380 0 -382 -3z"/>
<path d="M533 2031 c0 -25 16 -39 38 -34 31 8 21 48 -12 49 -17 1 -26 -4 -26
-15z"/>
<path d="M522 1942 c-11 -3 -7 -47 9 -105 13 -51 88 -128 148 -155 28 -13 65
-20 106 -20 63 0 135 16 135 30 0 5 6 8 13 8 22 0 89 73 109 118 11 24 20 61
21 84 l2 41 -267 1 c-147 1 -271 0 -276 -2z"/>
</g>
</svg>
